# xmcd
#
# Track frame offsets:
#	150
#	11809
#	25707
#	38784
#	52298
#	65050
#	78030
#	92441
#	106813
#	119547
#	132035
#	146228
#	159558
#	173580
#	187290
#	199227
#	213858
#	226243
#	241414
#	253893
#	268814
#	282188
#	295857
#	309756
#	322713
#	337317
#
# Disc length: 4685 seconds
#
# Revision: 1
# Processed by: cddbd v1.4PL0 Copyright (c) Steve Scherf et al.
# Submitted via: CDmax 2.0
#
DISCID=7d124b1a
DTITLE=The Carter Family - Volume 2, Disc 3, New York City 1936-1937
DYEAR=2003
DGENRE=Country
TTITLE0=My Native Home
TTITLE1=Sweet Heaven In My View
TTITLE2=No Depression
TTITLE3=Bonny Blue Eyes
TTITLE4=My Honey Lou
TTITLE5=In The Shadow Of The Eyes
TTITLE6=Answer To Weeping Willow
TTITLE7=You've Been A Friend To Me
TTITLE8=Where The Silvery Colorado Wends Its Way
TTITLE9=Lay My Head Beneath The Rose
TTITLE10=Broken Down Tramp, The
TTITLE11=Lover's Lane
TTITLE12=Hold Fast To The Right
TTITLE13=Lord I'm In Your Care
TTITLE14=Funny When You Feel That Way
TTITLE15=In The Shadow Of Clinch Mountain
TTITLE16=Hello Stranger
TTITLE17=Never Let The Devil Get The Upper Hand Of You
TTITLE18=When This Evening Sun Goes Down
TTITLE19=Jim Blake's Message
TTITLE20=Honey In The Rock
TTITLE21=Look How This World Has Made A Change
TTITLE22=Little Girl That Played Upon My Knee, The
TTITLE23=You Better Let That Liar Alone
TTITLE24=Farewell Nellie
TTITLE25=The Only Girl
EXTD=
EXTT0=
EXTT1=
EXTT2=
EXTT3=
EXTT4=
EXTT5=
EXTT6=
EXTT7=
EXTT8=
EXTT9=
EXTT10=
EXTT11=
EXTT12=
EXTT13=
EXTT14=
EXTT15=
EXTT16=
EXTT17=
EXTT18=
EXTT19=
EXTT20=
EXTT21=
EXTT22=
EXTT23=
EXTT24=
EXTT25=
PLAYORDER=
